<svg xmlns="http://www.w3.org/2000/svg" shape-rendering="geometricPrecision" text-rendering="geometricPrecision" image-rendering="optimizeQuality" fill-rule="evenodd" clip-rule="evenodd" viewBox="0 0 512 512.001"><path fill-rule="nonzero" d="M151.667 0h208.666c41.724 0 79.647 17.059 107.128 44.539C494.94 72.02 512 109.943 512 151.667v208.666c0 41.725-17.06 79.648-44.539 107.129-27.481 27.479-65.404 44.539-107.128 44.539H151.667c-41.724 0-79.647-17.06-107.128-44.539C17.06 439.981 0 402.058 0 360.333V151.667C0 109.943 17.06 72.02 44.539 44.539 72.02 17.059 109.943 0 151.667 0zm8.91 260.032v-12.101c0-26.25 10.736-50.111 28.022-67.398 17.288-17.288 41.151-28.024 67.4-28.024 26.25 0 50.111 10.736 67.398 28.024 17.292 17.292 28.026 41.15 28.026 67.398v12.101c23.293.648 41.98 19.73 41.98 43.18 0 23.856-19.342 43.198-43.199 43.198-18.479 0-24.685-3.639-24.685-20.057V289.13c0-13.911-.964-22.597 7.561-26.569v-14.63c0-21.184-8.677-40.457-22.651-54.43-13.973-13.974-33.243-22.648-54.428-22.648-21.188 0-40.459 8.674-54.433 22.648-13.973 13.973-22.648 33.243-22.648 54.43v14.584c8.002 3.709 7.561 11.695 7.561 24.949v40.545c0 15.479-8.421 18.401-24.687 18.401-23.856 0-43.197-19.342-43.197-43.198 0-23.45 18.687-42.532 41.98-43.18zM360.333 29.427H151.667c-33.601 0-64.159 13.758-86.321 35.919-22.161 22.162-35.918 52.72-35.918 86.321v208.666c0 33.602 13.757 64.16 35.918 86.322 22.162 22.161 52.72 35.918 86.321 35.918h208.666c33.601 0 64.159-13.757 86.321-35.918 22.161-22.162 35.918-52.72 35.918-86.322V151.667c0-33.601-13.757-64.159-35.918-86.321-22.162-22.161-52.72-35.919-86.321-35.919z"/></svg>